HIERARCHY
ROOT Hips
{
	OFFSET 0.00000 0.00000 0.00000
	CHANNELS 6 Xposition Yposition Zposition Zrotation Yrotation Xrotation 
	JOINT LHipJoint
	{
		OFFSET 0 0 0
		CHANNELS 3 Zrotation Yrotation Xrotation
		JOINT LeftHip
		{
			OFFSET 1.48831 -1.59570 0.95625
			CHANNELS 3 Zrotation Yrotation Xrotation
			JOINT LeftKnee
			{
				OFFSET 2.20856 -6.06797 0.00000
				CHANNELS 3 Zrotation Yrotation Xrotation
				JOINT LeftAnkle
				{
					OFFSET 2.62924 -7.22379 0.00000
					CHANNELS 3 Zrotation Yrotation Xrotation
					JOINT LeftToe
					{
						OFFSET 0.16802 -0.46163 2.41673
						CHANNELS 3 Zrotation Yrotation Xrotation
						End Site
						{
							OFFSET 0.00000 -0.00000 1.23760
						}
					}
				}
			}
		}
	}
	JOINT RHipJoint
	{
		OFFSET 0 0 0
		CHANNELS 3 Zrotation Yrotation Xrotation
		JOINT RightHip
		{
			OFFSET -1.56796 -1.59570 0.95625
			CHANNELS 3 Zrotation Yrotation Xrotation
			JOINT RightKnee
			{
				OFFSET -2.29239 -6.29829 0.00000
				CHANNELS 3 Zrotation Yrotation Xrotation
				JOINT RightAnkle
				{
					OFFSET -2.66963 -7.33475 0.00000
					CHANNELS 3 Zrotation Yrotation Xrotation
					JOINT RightToe
					{
						OFFSET -0.18185 -0.49964 2.34359
						CHANNELS 3 Zrotation Yrotation Xrotation
						End Site
						{
							OFFSET -0.00000 -0.00000 1.20477
						}
					}
				}
			}
		}
	}
	JOINT lowerback
	{
		OFFSET 0 0 0
		CHANNELS 3 Zrotation Yrotation Xrotation
		JOINT Chest
		{
			OFFSET 0.03505 2.15832 -0.34324
			CHANNELS 3 Zrotation Yrotation Xrotation
			JOINT Chest2
			{
				OFFSET -0.01089 2.17963 0.04689
				CHANNELS 3 Zrotation Yrotation Xrotation
				JOINT lowerneck
				{
					OFFSET 0 0 0
					CHANNELS 3 Zrotation Yrotation Xrotation
					JOINT Neck
					{
						OFFSET 0.04686 1.69404 0.22159
						CHANNELS 3 Zrotation Yrotation Xrotation
						JOINT Head
						{
							OFFSET 0.00265 1.69305 -0.01513
							CHANNELS 3 Zrotation Yrotation Xrotation
							End Site
							{
								OFFSET -0.00415 1.80215 -0.03034
							}
						}
					}
				}
				JOINT LeftCollar
				{
					OFFSET 0 0 0
					CHANNELS 3 Zrotation Yrotation Xrotation
					JOINT LeftShoulder
					{
						OFFSET 3.67184 1.11724 -0.19002
CHANNELS 3 Zrotation Xrotation Yrotation
						JOINT LeftElbow
						{
OFFSET 0 -5.177140 -0.000000
CHANNELS 3 Zrotation Xrotation Yrotation
							JOINT LeftWrist
							{
OFFSET 0 -3.436790 -0.000000
CHANNELS 3 Zrotation Xrotation Yrotation
								JOINT lhand
								{
									OFFSET 0 0 0
CHANNELS 3 Zrotation Xrotation Yrotation
									JOINT LFingers
									{
OFFSET 0 -0.573120 -0.000000
CHANNELS 3 Zrotation Xrotation Yrotation
										End Site
										{
OFFSET 0 -0.462060 -0.000000
										}
									}
								}
								JOINT LThumb
								{
OFFSET 0 0.000000 0.000000
CHANNELS 3 Zrotation Xrotation Yrotation
									End Site
									{
OFFSET 0 -0.469120 0.469120
									}
								}
							}
						}
					}
				}
				JOINT RightCollar
				{
					OFFSET 0 0 0
					CHANNELS 3 Zrotation Yrotation Xrotation
					JOINT RightShoulder
					{
						OFFSET -3.59596 0.95831 -0.26050
CHANNELS 3 Zrotation Xrotation Yrotation
						JOINT RightElbow
						{
OFFSET 0 -5.239080 -0.000000
CHANNELS 3 Zrotation Xrotation Yrotation
							JOINT RightWrist
							{
OFFSET 0 -3.464850 -0.000000
CHANNELS 3 Zrotation Xrotation Yrotation
								JOINT rhand
								{
									OFFSET 0 0 0
CHANNELS 3 Zrotation Xrotation Yrotation
									JOINT RFingers
									{
OFFSET 0 -0.608750 -0.000000
CHANNELS 3 Zrotation Xrotation Yrotation
										End Site
										{
OFFSET 0 -0.490790 -0.000000
										}
									}
								}
								JOINT RThumb
								{
OFFSET 0 0.000000 0.000000
CHANNELS 3 Zrotation Xrotation Yrotation
									End Site
									{
OFFSET 0 -0.498290 0.498290
									}
								}
							}
						}
					}
				}
			}
		}
	}
}
MOTION
Frames: 8
Frame Time: 0.008333333333333333
-2.100685 15.088444 9.710367 191.002309 -49.265304 -176.754992 0.000000 0.000000 0.000000 2.776786 -13.301512 -54.553814 8.434998 16.430059 54.114929 -2.025875 -24.346136 6.730512 0.919925 6.110896 17.106458 0.000000 0.000000 0.000000 27.335882 -11.163944 -31.136421 -9.839152 -17.318345 58.949337 -4.947293 -11.825587 -46.925133 -0.206988 2.928541 -8.079906 2.720254 3.631353 30.258288 -3.321632 3.270570 10.912485 -6.266539 0.991944 -3.842935 7.565016 8.886077 7.691309 -16.942692 10.923102 -13.063667 -6.977096 6.101448 -3.691373 0.000000 0.000000 0.000000 18.279143 -5.946690 -28.520846 146.285496 -43.872118 106.085159 -1.608977 -9.990844 -39.180881 0.000000 0.000000 0.000000 -7.125000 0.000000 0.000000 -45.286878 63.359296 22.433041 0.000000 0.000000 0.000000 -12.176767 -10.900480 47.137257 -147.537845 -42.912484 -106.945597 12.322390 10.243654 18.783620 0.000000 0.000000 0.000000 7.125000 0.000000 0.000000 36.898671 45.269796 -0.286057
-1.646576 15.023597 9.752576 190.511397 -48.344871 -177.427369 0.000000 0.000000 0.000000 3.922946 -13.296111 -53.749355 8.058689 16.162222 52.773663 -1.864788 -23.466307 6.114667 0.581296 4.881741 13.571524 0.000000 0.000000 0.000000 27.663387 -10.817830 -31.783753 -10.284986 -17.567027 60.436683 -5.004403 -10.391339 -46.459624 -0.392769 4.024202 -11.144642 2.640194 3.762321 30.457230 -3.486886 3.298847 11.255590 -6.414013 0.983243 -3.530655 7.232922 8.832018 8.129180 -16.464392 10.838734 -13.440988 -6.823947 6.066785 -3.942094 0.000000 0.000000 0.000000 18.062925 -6.072462 -28.335286 146.248444 -43.899816 106.059486 -1.446049 -9.834764 -39.030062 0.000000 0.000000 0.000000 -7.125000 0.000000 0.000000 -44.924063 63.295908 22.149859 0.000000 0.000000 0.000000 -12.281105 -11.436402 48.793854 -147.403372 -43.017644 -106.853911 12.279473 9.893402 18.856966 0.000000 0.000000 0.000000 7.125000 0.000000 0.000000 36.905465 45.336176 -0.356450
-1.184209 14.943132 9.849498 190.265524 -46.446165 -178.198369 0.000000 0.000000 0.000000 5.460931 -12.971823 -52.963954 7.740193 15.924761 51.621370 -1.575934 -21.713657 5.449781 0.357760 3.842528 10.634037 0.000000 0.000000 0.000000 28.216208 -9.700148 -33.124430 -10.979600 -17.925018 62.715166 -4.958913 -9.611473 -45.916740 -0.454228 4.323596 -11.988839 3.093192 3.789278 30.856602 -3.614903 3.333037 11.528663 -6.845557 0.979438 -3.343945 7.263522 8.655037 8.477273 -16.065869 10.654019 -13.521173 -6.729259 5.960466 -4.072783 0.000000 0.000000 0.000000 18.384686 -6.392260 -28.755718 146.142001 -43.979216 105.985706 -0.660998 -9.693233 -38.035886 0.000000 0.000000 0.000000 -7.125000 0.000000 0.000000 -42.838746 62.784538 20.411518 0.000000 0.000000 0.000000 -11.959591 -11.089586 49.690322 -147.247924 -43.138582 -106.747797 12.405304 9.673842 18.910237 0.000000 0.000000 0.000000 7.125000 0.000000 0.000000 37.036332 45.363771 -0.387500
-0.739294 14.845633 9.993590 189.432442 -43.688400 -178.745331 0.000000 0.000000 0.000000 6.520673 -12.321971 -51.759854 7.488328 15.729690 50.697925 -1.242574 -19.394488 4.959223 0.239624 3.150157 8.697111 0.000000 0.000000 0.000000 28.161493 -8.152030 -34.191529 -11.734335 -18.276030 65.144174 -4.959908 -8.535455 -45.440254 -0.467554 4.385780 -12.164656 3.216760 3.768069 31.398592 -3.685158 3.142313 12.010317 -6.950774 0.833234 -3.040679 7.575110 8.564674 8.539605 -15.656498 10.650211 -13.340656 -6.644933 5.916064 -4.037479 0.000000 0.000000 0.000000 18.551569 -6.856500 -29.370058 146.156028 -43.968834 105.995326 -0.620535 -9.695652 -38.353172 0.000000 0.000000 0.000000 -7.125000 0.000000 0.000000 -43.221218 63.027783 20.875232 0.000000 0.000000 0.000000 -11.722610 -10.546937 49.992432 -147.103429 -43.250421 -106.648809 12.739009 9.288096 19.090113 0.000000 0.000000 0.000000 7.125000 0.000000 0.000000 37.405599 45.468332 -0.505242
-0.325897 14.724850 10.185660 188.227686 -40.507794 -178.977649 0.000000 0.000000 0.000000 7.128261 -11.267396 -50.585193 7.272588 15.557211 49.898005 -0.990994 -17.428003 4.250112 0.129461 2.318432 6.386491 0.000000 0.000000 0.000000 27.760739 -6.404155 -35.512450 -12.564827 -18.619304 67.768231 -4.945000 -7.609271 -44.982214 -0.463654 4.367583 -12.113159 3.174876 3.525834 31.803225 -3.545026 2.631309 12.500354 -6.609772 0.512624 -2.737584 7.379265 8.531161 9.148375 -15.197412 10.641701 -13.561566 -6.520951 5.910422 -4.250490 0.000000 0.000000 0.000000 18.395814 -7.059073 -29.800082 146.085406 -44.021359 105.946341 -0.774154 -9.977250 -38.504599 0.000000 0.000000 0.000000 -7.125000 0.000000 0.000000 -43.570292 63.097474 21.147744 0.000000 0.000000 0.000000 -11.994399 -9.985240 49.684534 -147.029172 -43.307610 -106.597960 12.263478 9.391665 18.988451 0.000000 0.000000 0.000000 7.125000 0.000000 0.000000 36.966658 45.447191 -0.474903
0.041791 14.598173 10.422472 186.899806 -37.001370 -178.735472 0.000000 0.000000 0.000000 7.573472 -9.997730 -49.696369 7.047192 15.371572 49.052709 -0.784034 -15.627533 3.318521 0.028756 1.093796 3.006944 0.000000 0.000000 0.000000 27.071121 -4.217279 -37.259187 -13.406649 -18.924079 70.383917 -4.867074 -6.596603 -44.239763 -0.425703 4.187440 -11.604493 3.551024 3.252124 32.342284 -3.679957 2.265315 12.599860 -6.386114 0.296018 -2.574905 8.037587 8.266674 9.506415 -14.962373 10.438004 -13.478734 -6.564518 5.769323 -4.286893 0.000000 0.000000 0.000000 18.205781 -7.174099 -31.606725 145.739229 -44.276973 105.705216 -0.000776 -9.363385 -37.922892 0.000000 0.000000 0.000000 -7.125000 0.000000 0.000000 -42.059480 62.874998 20.057367 0.000000 0.000000 0.000000 -11.978483 -9.056482 48.350790 -146.942560 -43.374204 -106.538441 11.372935 9.717373 18.866900 0.000000 0.000000 0.000000 7.125000 0.000000 0.000000 36.180957 45.463223 -0.478102
0.337991 14.502551 10.683050 185.373351 -33.236154 -178.244788 0.000000 0.000000 0.000000 7.466303 -8.554232 -48.656017 6.794587 15.156435 48.092981 -0.574549 -13.479153 2.557158 0.001017 0.202774 0.557052 0.000000 0.000000 0.000000 25.905625 -2.097096 -39.050836 -14.149285 -19.158669 72.659901 -4.688536 -5.237780 -42.941625 -0.354607 3.825890 -10.587361 4.044091 2.880890 32.293715 -3.568895 1.765466 12.988767 -6.377975 0.010068 -2.174651 8.481489 8.132726 9.593820 -14.742981 10.363941 -13.400562 -6.565032 5.693418 -4.275093 0.000000 0.000000 0.000000 18.132597 -7.369359 -32.736000 145.645769 -44.345495 105.639909 -0.524527 -10.179006 -38.487074 0.000000 0.000000 0.000000 -7.125000 0.000000 0.000000 -43.309115 63.151271 21.049737 0.000000 0.000000 0.000000 -11.708533 -8.257924 46.790042 -146.867778 -43.431365 -106.487123 12.742049 9.487507 19.561945 0.000000 0.000000 0.000000 7.125000 0.000000 0.000000 37.679699 45.856472 -0.931228
0.586435 14.439308 10.929567 183.172499 -29.327129 -177.692863 0.000000 0.000000 0.000000 6.347503 -7.012685 -46.909038 6.437890 14.839617 46.714731 -0.393716 -11.235321 1.909474 0.009038 -0.614566 -1.688725 0.000000 0.000000 0.000000 24.002432 0.125204 -40.132225 -14.701826 -19.313273 74.336959 -4.564203 -3.462703 -41.743079 -0.238545 3.143015 -8.677195 3.677297 2.701111 32.409844 -3.347222 1.250533 13.290518 -5.789554 -0.334978 -1.969165 8.659149 8.047223 10.012063 -14.483749 10.322111 -13.538527 -6.543003 5.653051 -4.399084 0.000000 0.000000 0.000000 18.091657 -7.277173 -33.392894 145.458810 -44.481678 105.509130 -0.815387 -10.473642 -38.472186 0.000000 0.000000 0.000000 -7.125000 0.000000 0.000000 -43.565666 63.062769 21.110092 0.000000 0.000000 0.000000 -11.587279 -7.660435 45.627071 -146.843706 -43.449851 -106.470571 12.601061 9.806144 19.235175 0.000000 0.000000 0.000000 7.125000 0.000000 0.000000 37.377987 45.606178 -0.653049
